<svg xmlns="http://www.w3.org/2000/svg" viewBox="0 0 500 500" width="100%" height="100%">
  <defs>
    <clipPath id="circleClip">
      <circle cx="250" cy="250" r="220" />
    </clipPath>

    <!-- Iridescent gradient for outer ring -->
    <linearGradient id="iridescentRing" x1="0%" y1="0%" x2="100%" y2="100%">
      <stop offset="0%" stop-color="#e879f9" />
      <stop offset="25%" stop-color="#38bdf8" />
      <stop offset="50%" stop-color="#4ade80" />
      <stop offset="75%" stop-color="#facc15" />
      <stop offset="100%" stop-color="#fb923c" />
    </linearGradient>

    <!-- Crystal band gradients -->
    <linearGradient id="crystalBand1" x1="0%" y1="0%" x2="100%" y2="100%">
      <stop offset="0%" stop-color="#38bdf8" stop-opacity="0.6"/>
      <stop offset="50%" stop-color="#818cf8" stop-opacity="0.8"/>
      <stop offset="100%" stop-color="#e879f9" stop-opacity="0.5"/>
    </linearGradient>

    <linearGradient id="crystalBand2" x1="100%" y1="0%" x2="0%" y2="100%">
      <stop offset="0%" stop-color="#4ade80" stop-opacity="0.5"/>
      <stop offset="50%" stop-color="#facc15" stop-opacity="0.7"/>
      <stop offset="100%" stop-color="#fb923c" stop-opacity="0.4"/>
    </linearGradient>

    <linearGradient id="crystalBand3" x1="0%" y1="100%" x2="100%" y2="0%">
      <stop offset="0%" stop-color="#e879f9" stop-opacity="0.4"/>
      <stop offset="50%" stop-color="#38bdf8" stop-opacity="0.6"/>
      <stop offset="100%" stop-color="#4ade80" stop-opacity="0.3"/>
    </linearGradient>

    <radialGradient id="centerGlow" cx="40%" cy="40%" r="60%">
      <stop offset="0%" stop-color="#c4b5fd" stop-opacity="0.3"/>
      <stop offset="100%" stop-color="#0a0a1a" stop-opacity="0"/>
    </radialGradient>

    <!-- Crystal texture noise -->
    <filter id="crystalNoise" x="0%" y="0%" width="100%" height="100%">
      <feTurbulence type="fractalNoise" baseFrequency="0.012" numOctaves="4" seed="23" result="noise" />
      <feColorMatrix type="saturate" values="0" result="mono" />
      <feComponentTransfer result="contrast">
        <feFuncR type="linear" slope="1.6" intercept="-0.3"/>
        <feFuncG type="linear" slope="1.6" intercept="-0.3"/>
        <feFuncB type="linear" slope="1.6" intercept="-0.3"/>
      </feComponentTransfer>
      <feGaussianBlur stdDeviation="1.5" result="blurred"/>
    </filter>

    <!-- Stair-step displacement -->
    <filter id="stepDisplace" x="-20%" y="-20%" width="140%" height="140%">
      <feTurbulence type="turbulence" baseFrequency="0.006" numOctaves="3" seed="83" result="turb" />
      <feDisplacementMap in="SourceGraphic" in2="turb" scale="35" xChannelSelector="R" yChannelSelector="G" />
    </filter>

    <!-- Speckle texture -->
    <filter id="speckles" x="0%" y="0%" width="100%" height="100%">
      <feTurbulence type="turbulence" baseFrequency="0.08" numOctaves="2" seed="15" result="speckle"/>
      <feColorMatrix type="matrix" values="
        1 0 0 0 0.3
        0 0 0 0 0
        0 0 0 0 0
        0 0 0 -3 1.5" result="speckleMask"/>
    </filter>
  </defs>

  <!-- Base dark circle -->
  <circle cx="250" cy="250" r="220" fill="#0a0a1a" />

  <g clip-path="url(#circleClip)">
    <!-- Crystal texture layer -->
    <rect x="0" y="0" width="500" height="500" fill="#141428" filter="url(#crystalNoise)" opacity="0.4"/>

    <!-- Stair-step crystal bands — bismuth's hopper crystal habit -->
    <path d="M -50 160 Q 100 100, 250 180 T 550 130"
          fill="none" stroke="url(#crystalBand1)" stroke-width="55" filter="url(#stepDisplace)" opacity="0.6"/>
    <path d="M -30 260 Q 150 200, 300 280 T 580 230"
          fill="none" stroke="url(#crystalBand2)" stroke-width="42" filter="url(#stepDisplace)" opacity="0.5"/>
    <path d="M -40 340 Q 80 290, 200 370 T 560 330"
          fill="none" stroke="url(#crystalBand3)" stroke-width="35" filter="url(#stepDisplace)" opacity="0.4"/>
    <path d="M -20 410 Q 120 370, 280 440 T 540 390"
          fill="none" stroke="#818cf8" stroke-width="28" filter="url(#stepDisplace)" opacity="0.35"/>

    <!-- Stair-step crystal formations — bismuth's signature geometry -->
    <!-- Main crystal (centre-right) -->
    <path d="M 300 140 L 340 140 L 340 180 L 370 180 L 370 220 L 400 220 L 400 260 L 400 300 L 370 300 L 370 340 L 340 340 L 340 380 L 300 380 L 300 340 L 270 340 L 270 300 L 240 300 L 240 260 L 240 220 L 270 220 L 270 180 L 300 180 Z"
          fill="none" stroke="#e879f9" stroke-width="2" opacity="0.5"/>
    <path d="M 300 180 L 340 180 L 340 220 L 370 220 L 370 260 L 370 300 L 340 300 L 340 340 L 300 340 L 300 300 L 270 300 L 270 260 L 270 220 L 300 220 Z"
          fill="#818cf8" opacity="0.08"/>

    <!-- Smaller crystal (upper-left) -->
    <path d="M 120 120 L 150 120 L 150 155 L 175 155 L 175 190 L 175 225 L 150 225 L 150 260 L 120 260 L 120 225 L 95 225 L 95 190 L 95 155 L 120 155 Z"
          fill="none" stroke="#38bdf8" stroke-width="1.5" opacity="0.4"/>
    <path d="M 120 155 L 150 155 L 150 190 L 175 190 L 175 225 L 150 225 L 150 260 L 120 260 L 120 225 L 95 225 L 95 190 L 120 190 Z"
          fill="#38bdf8" opacity="0.06"/>

    <!-- Tiny crystal (lower-left) -->
    <path d="M 80 330 L 100 330 L 100 355 L 115 355 L 115 380 L 115 405 L 100 405 L 100 430 L 80 430 L 80 405 L 65 405 L 65 380 L 65 355 L 80 355 Z"
          fill="none" stroke="#4ade80" stroke-width="1.5" opacity="0.35"/>

    <!-- Speckle layer -->
    <rect x="0" y="0" width="500" height="500" fill="#000" filter="url(#speckles)" opacity="0.25"/>

    <!-- Concentric ripple rings (shared language with Malachite/Jasper) -->
    <circle cx="130" cy="160" r="240.0" fill="none" stroke="#e879f9" stroke-width="8.0" opacity="0.25"/>
    <circle cx="130" cy="160" r="213.333" fill="none" stroke="#c084fc" stroke-width="8.0" opacity="0.2"/>
    <circle cx="130" cy="160" r="186.667" fill="none" stroke="#818cf8" stroke-width="8.0" opacity="0.15"/>
    <circle cx="130" cy="160" r="160.0" fill="none" stroke="#38bdf8" stroke-width="8.0" opacity="0.1"/>

    <circle cx="380" cy="320" r="260.0" fill="none" stroke="#4ade80" stroke-width="7.09" opacity="0.2"/>
    <circle cx="380" cy="320" r="212.727" fill="none" stroke="#facc15" stroke-width="7.09" opacity="0.15"/>
    <circle cx="380" cy="320" r="165.455" fill="none" stroke="#fb923c" stroke-width="7.09" opacity="0.1"/>

    <circle cx="250" cy="480" r="180.0" fill="none" stroke="#818cf8" stroke-width="7.71" opacity="0.15"/>
    <circle cx="250" cy="480" r="128.571" fill="none" stroke="#e879f9" stroke-width="7.71" opacity="0.1"/>
  </g>

  <!-- Center glow highlight -->
  <circle cx="250" cy="250" r="180" fill="url(#centerGlow)"/>

  <!-- Outer ring — iridescent gradient -->
  <circle cx="250" cy="250" r="220" fill="none" stroke="url(#iridescentRing)" stroke-width="12" />
  <circle cx="250" cy="250" r="235" fill="none" stroke="#e879f9" stroke-width="3" stroke-dasharray="6, 8" />

  <!-- Stylized star — same language as Malachite/Jasper but iridescent -->
  <path d="M 250 35 L 379.3 428 L 40.8 182 L 459.2 182 L 120.7 428 Z"
        fill="none"
        stroke="#c4b5fd"
        stroke-width="5"
        stroke-linejoin="round"
        opacity="0.6"
        filter="url(#stepDisplace)"/>

  <!-- Central crystal node -->
  <circle cx="250" cy="250" r="18" fill="#0a0a1a" stroke="#e879f9" stroke-width="4" />
  <circle cx="250" cy="250" r="8" fill="#818cf8" opacity="0.8"/>
  <circle cx="250" cy="250" r="3" fill="#e0e7ff"/>

  <!-- Star point nodes with iridescent inner spots -->
  <g>
    <circle cx="250" cy="35" r="12" fill="#0a0a1a" stroke="#c4b5fd" stroke-width="3" />
    <circle cx="250" cy="35" r="4" fill="#e879f9" opacity="0.8"/>
  </g>
  <g>
    <circle cx="379.3" cy="428" r="12" fill="#0a0a1a" stroke="#c4b5fd" stroke-width="3" />
    <circle cx="379.3" cy="428" r="4" fill="#38bdf8" opacity="0.8"/>
  </g>
  <g>
    <circle cx="40.8" cy="182" r="12" fill="#0a0a1a" stroke="#c4b5fd" stroke-width="3" />
    <circle cx="40.8" cy="182" r="4" fill="#4ade80" opacity="0.8"/>
  </g>
  <g>
    <circle cx="459.2" cy="182" r="12" fill="#0a0a1a" stroke="#c4b5fd" stroke-width="3" />
    <circle cx="459.2" cy="182" r="4" fill="#facc15" opacity="0.8"/>
  </g>
  <g>
    <circle cx="120.7" cy="428" r="12" fill="#0a0a1a" stroke="#c4b5fd" stroke-width="3" />
    <circle cx="120.7" cy="428" r="4" fill="#fb923c" opacity="0.8"/>
  </g>
</svg>
