<svg width="64" height="64" viewBox="0 0 64 64" fill="none" xmlns="http://www.w3.org/2000/svg">
<path d="M35.041 0.551758C41.0481 0.551758 46.1485 2.56568 49.6504 6.89062C49.9931 7.31394 50.315 7.75525 50.6191 8.21191C52.0141 9.12394 53.2734 10.2549 54.374 11.6143C57.7728 15.8123 59.2539 21.686 59.2539 28.6182C59.2539 34.128 58.3166 38.9766 56.2295 42.8506C56.4406 42.9955 56.6442 43.1574 56.8379 43.3359C57.7639 44.1892 58.3014 45.2583 58.6396 46.2061L58.6592 46.2617L58.6777 46.3184C59.1151 47.6862 59.4065 49.6752 58.2637 51.5166C58.0281 51.8961 57.7581 52.2242 57.4668 52.5088C57.5285 52.8965 57.5506 53.3054 57.5186 53.7344C57.3557 55.9063 55.9375 57.3619 54.7139 58.2334L54.7119 58.2344C53.8016 58.8816 52.5028 59.5937 50.8721 59.5938C49.9274 59.5937 49.1175 59.3627 48.4287 58.998C47.7315 59.3642 46.9174 59.5937 45.9766 59.5938C44.4174 59.5936 43.0831 58.8815 42.1729 58.2344L42.1309 58.2051C41.1221 57.4655 39.9085 56.2837 39.4883 54.5723C38.6863 54.3051 37.992 53.8976 37.4492 53.5117L37.4082 53.4814C36.7851 53.0245 36.0834 52.3989 35.5391 51.584C35.046 51.4755 34.562 51.3494 34.0879 51.2041V57.6387C34.0878 58.9405 33.7583 60.5905 32.4424 61.874C31.1432 63.1415 29.4987 63.4482 28.2021 63.4482H15.2793C13.9776 63.4482 12.3507 63.1196 11.0742 61.8438C10.1137 60.8831 9.68988 59.724 9.53906 58.6543C8.46977 58.5034 7.31092 58.0804 6.35059 57.1201C5.07429 55.8437 4.74614 54.2167 4.74609 52.915V7.11719C4.74612 5.81551 5.0743 4.18856 6.35059 2.91211C7.62704 1.6358 9.25396 1.30765 10.5557 1.30762H23.4785C24.5331 1.30762 25.8013 1.51075 26.9316 2.24512C29.3473 1.12897 32.0767 0.551852 35.041 0.551758ZM35.042 4.09473C31.3391 4.09478 28.2406 5.15272 25.8223 7.04199C25.8223 5.6062 25.0663 4.85071 23.4795 4.85059H10.5566C9.04529 4.85062 8.28912 5.60588 8.28906 7.11719V52.915C8.28916 54.4263 9.04532 55.1826 10.5566 55.1826H23.4795C25.0662 55.1825 25.8221 54.4262 25.8223 52.915V40.748C28.2744 42.6057 31.3111 43.7313 34.8604 43.7686C34.8793 43.2064 35.0046 42.6497 35.1836 42.1309C35.4462 41.3085 35.8431 40.5051 36.4932 39.8975C37.2067 39.2308 38.0825 38.9316 39.0029 38.9316C39.1289 38.9317 39.2559 38.9399 39.3828 38.9521C39.5147 38.3741 39.7651 37.8161 40.1914 37.3271C41.1123 36.2713 42.4587 35.9775 43.7197 35.9775C44.9652 35.9776 46.3153 36.2726 47.2314 37.334C47.36 37.4829 47.4701 37.6399 47.5674 37.7998C49.8206 34.489 50.9883 29.8302 50.9883 23.8945C50.9882 10.896 45.3955 4.09476 35.042 4.09473ZM43.7188 37.749C41.6464 37.7491 40.8241 38.7341 41.0742 40.7393L41.2178 41.4775L40.5391 41.126C39.9673 40.8445 39.4308 40.7041 39.002 40.7041C37.9657 40.7041 37.2862 41.337 36.8574 42.709C36.2143 44.5733 36.9294 45.6637 38.9658 46.0156L39.7168 46.1211L39.1807 46.7197C37.7156 48.1269 37.8225 49.3937 39.502 50.625C40.145 51.0822 40.7527 51.328 41.2529 51.3281C42.0748 51.3281 42.7896 50.7653 43.3613 49.6748L43.7188 49.0059L44.0762 49.6748C44.6479 50.7654 45.3275 51.3281 46.1494 51.3281C46.721 51.328 47.2926 51.0821 47.9355 50.625C49.615 49.4289 49.687 48.1269 48.2578 46.6846L47.7568 46.1211L48.4717 46.0156C50.5443 45.6638 51.1876 44.5736 50.5801 42.6738C50.1155 41.3722 49.4365 40.7393 48.4717 40.7393C48.0072 40.7393 47.5069 40.8797 46.8994 41.1611L46.1846 41.4775L46.292 40.7393C46.6136 38.734 45.7556 37.749 43.7188 37.749ZM30.1348 17.3389C33.6879 17.3389 34.8583 19.9894 34.8584 24.4238C34.8583 28.8583 33.6879 31.5087 30.1348 31.5088C26.5815 31.5088 25.4112 28.8583 25.4111 24.4238C25.4112 19.9893 26.5815 17.3389 30.1348 17.3389Z" fill="white"/>
</svg>
